<svg width="41" height="38" viewBox="0 0 41 38" fill="none" xmlns="http://www.w3.org/2000/svg">
<g filter="url(#filter0_d_130_1083)">
<rect x="2.5" y="37" width="36" height="36" rx="18" transform="rotate(-90 2.5 37)" fill="#E1E1E1" stroke="#363775" shape-rendering="geometricPrecision"/>
<path d="M11.75 17.701L23.75 10.7728C24.75 10.1954 26 10.9171 26 12.0718L26 25.9282C26 27.0829 24.75 27.8046 23.75 27.2272L11.75 20.299C10.75 19.7217 10.75 18.2783 11.75 17.701Z" fill="#D9D9D9" stroke="#363775"/>
<path d="M13.5 19.866C12.8333 19.4811 12.8333 18.5189 13.5 18.134L23.25 12.5048C23.9167 12.1199 24.75 12.601 24.75 13.3708L24.75 24.6292C24.75 25.399 23.9167 25.8801 23.25 25.4952L13.5 19.866Z" fill="white"/>
</g>
</svg>
