<?xml version="1.0" encoding="UTF-8"?>
<svg id="Camada_1" data-name="Camada 1" xmlns="http://www.w3.org/2000/svg" viewBox="0 0 1080 738.62">
  <defs>
    <style>
      .cls-1 {
        fill: #e6353b;
      }

      .cls-1, .cls-2, .cls-3, .cls-4, .cls-5, .cls-6, .cls-7, .cls-8, .cls-9, .cls-10, .cls-11 {
        stroke-width: 0px;
      }

      .cls-2 {
        fill: #ef8437;
      }

      .cls-3 {
        fill: #ec6177;
      }

      .cls-4 {
        fill: #faf28c;
      }

      .cls-5 {
        fill: #07794b;
      }

      .cls-6 {
        fill: #5c5871;
      }

      .cls-7 {
        fill: #a7c4d3;
      }

      .cls-8 {
        fill: #ee8784;
      }

      .cls-9 {
        fill: #fbca31;
      }

      .cls-10 {
        fill: #fff;
      }

      .cls-11 {
        fill: #393e82;
      }
    </style>
  </defs>
  <path class="cls-10" d="M268.94,738.62c-.42,0-.84-.02-1.26-.04-.39.02-.79.04-1.18.04h-123.79c-19.91,0-36.11-16.2-36.11-36.11v-67.06c0-11.14,5.02-21.47,13.77-28.37,6.42-5.24,14.52-8.13,22.82-8.13h24.72c.03-.93.1-1.85.2-2.78-.03-1.55,0-3.59.25-5.94l.11-5.17c.02-1.08.09-2.16.21-3.23-.03-1.54,0-3.57.24-5.9l.11-5.78c.02-1.15.1-2.31.23-3.46-.04-1.61-.05-3.96.23-6.69l.12-7.03c.02-1.21.1-2.43.25-3.63-.04-1.73-.09-4.39.2-7.52l.13-8.9c.02-1.33.11-2.67.28-3.99,0-.3-.02-.65-.02-.96-.05-2.1-.13-5.23.19-8.85l.14-14.8c.01-1.26.09-2.54.24-3.8,0-19.61,0-39.22,0-58.83-.14-1.24-.22-2.5-.24-3.75l-.13-11.78c-.3-3.29-.24-6.01-.19-7.89-.15-1.21-.23-2.44-.26-3.65l-.11-5.86c-.27-2.6-.27-4.82-.24-6.29-.12-1.05-.19-2.12-.22-3.17l-.1-3.97c-.18-1.65-.27-3.32-.27-5.06-.57-5.17,0-10.48,1.64-15.41,4.46-13.37,15.34-22.7,28.68-25.14-3.6-2.02-6.85-4.66-9.58-7.82l-29.56,15.09c-5.06,2.58-10.73,3.95-16.4,3.95-12.22,0-23.58-6.19-30.22-16.32l-21.01,10.69c-5.05,2.57-10.71,3.93-16.37,3.93-7.31,0-14.36-2.18-20.39-6.31l-40.32-27.58c-10.44-7.14-16.44-19.42-15.65-32.04.78-12.62,8.26-24.07,19.5-29.86L523.05,4.01c5.09-2.62,10.81-4.01,16.54-4.01s11.46,1.39,16.55,4.02l504.3,260.13c11.35,5.85,18.82,17.41,19.5,30.16.68,12.75-5.51,25.04-16.17,32.07l-42.23,27.87c-5.92,3.91-12.8,5.97-19.89,5.97-5.7,0-11.39-1.37-16.46-3.97l-20.06-10.27c-6.72,9.48-17.67,15.22-29.47,15.22-5.66,0-11.34-1.37-16.4-3.95l-29.59-15.1c-6.79,8-16.87,12.77-27.56,12.77-5.68,0-11.36-1.37-16.44-3.97l-128.93-66.01c4.29,7.25,8.77,14.77,13.31,22.13,5.99,9.7,7.69,20.75,4.8,31.11-1.66,5.95-6.45,16.96-19.83,23.88-.96.51-2.94,1.86-3.9,2.51-8.09,5.57-16.11,6.75-21.42,6.75s-22.67-1.43-32.76-19.79c-1.56-2.83-3.13-5.67-4.69-8.51-.9,1.9-1.8,3.79-2.69,5.7-1.2,2.56-2.6,4.94-4.18,7.11,11.52,7.07,18.31,19.9,17.61,33.72.01,12.38.02,24.77.02,37.17,9.69-6.87,19.51-11.9,28.14-16,14.34-6.82,27.48-11.88,40.19-15.46,5.92-1.67,11.54-2.8,16.74-3.77,1.96-.47,3.99-.79,6.03-.96,2.07-.32,4.14-.47,6.19-.47,5.18,0,10.25,1.03,14.91,2.96.09-.18.18-.36.27-.54,2.98-6,6.05-11.41,9.02-16.63.97-1.7,1.91-3.35,2.84-5.02,7.07-12.62,19.47-20.16,33.17-20.16s24.65,6.64,31.94,18.22c.63.96,1.26,1.93,1.9,2.89l.12.18c3,4.55,6.1,9.25,9.11,14.69,10.87,19.6,21.84,39.55,32.45,58.84,6.17,11.22,12.3,22.38,18.46,33.53,11.87,21.52,22.73,41.1,33.19,59.87,10.37,18.46,4.4,40.73-13.91,51.78-2.14,1.31-4.51,2.88-7.01,4.54-2.2,1.46-4.4,2.92-6.63,4.34-4.19,2.67-12.01,7.66-23.42,7.66-10.61,0-25.34-4.1-35.25-23.62l-3.86-7.72c-4.25-8.51-8.65-17.31-13.04-25.78-.88-1.7-1.8-3.42-2.75-5.17-.55.02-1.1.02-1.66.02-.39,0-.78,0-1.17-.01-1.1.13-2.22.2-3.33.23l-4.62.1c-1.72.18-3.46.27-5.3.27-.41,0-.82,0-1.23-.01-1.11.13-2.23.2-3.34.22-1.67.03-3.35.06-5.02.11-1.65.18-3.33.26-5.09.26-.33,0-.65,0-.98,0-1.09.12-2.19.19-3.29.22l-4.83.1c-1.12,2.54-2.24,5.09-3.35,7.65,0,0-.81,1.85-1.13,2.59.32.26.63.52.93.79.37.33.74.67,1.11,1.02.35.31.64.59.93.89.45.46.85.92,1.25,1.38l.16.18c.18.19.38.42.58.66.34.41.64.8.93,1.2l.1.14c.26.34.53.71.79,1.08.27.39.53.79.79,1.2.18.26.33.51.48.76.12.2.26.44.39.69.26.46.52.93.77,1.41.29.56.6,1.19.89,1.82l.17.39c1.96,4.43,3.1,9.4,3.28,14.35.1.87.17,1.75.2,2.62l.07,1.59c.12.99.21,2,.26,3,.13,1.02.21,2.05.25,3.08l.1,2.52c.06.51.11,1.03.16,1.53h30.25c3.5,0,6.98.52,10.38,1.54,3.89.29,7.67,1.15,11.27,2.56l52.22,20.52c.25.1.5.2.75.3,2.78.36,5.49,1.03,8.09,1.98l23.97,8.76c14.76,5.39,24.57,19.57,24.43,35.28-.15,15.71-10.23,29.7-25.08,34.82l-23.58,8.11c-1.66.57-3.41,1.03-5.2,1.37-2.06,1.08-4.19,1.99-6.36,2.7l-51,16.86c-1.22.41-2.48.75-3.76,1.04-5.01,2.5-10.54,3.82-16.13,3.82H268.94ZM591.7,598.95c-3.59-1.06-6.99-2.68-10.09-4.79-1.61,1.29-3.26,2.56-4.93,3.79-.46.34-.91.67-1.38,1h16.39ZM399.98,598.95c.03-.9.1-1.79.2-2.68-.01-1.43.02-3.32.26-5.51l.1-5.03c0-.35.02-.71.04-1.06-12.29,6.95-26.33,11.38-41.75,13.18-.14.02-.29.05-.43.07,0,.34,0,.69,0,1.03h41.59ZM699.51,529.39c-.06,2.83.26,5.16,1.54,7.37,4.65-8.81,9.38-17.83,13.76-26.64,1.66-3.37,3.36-6.72,5.07-10.02-5.06,3.3-9.32,6.95-12.93,11.06-5.74,6.52-6.73,10.7-6.95,13.61-.06.74-.14,1.48-.24,2.22-.06.81-.14,1.61-.25,2.4ZM498.9,536.42c3.61-1.6,7.07-3.47,10.43-5.63,11.03-7.08,17.43-14.33,20.75-23.51,2.63-7.24.37-9.09-1.63-10.73-3.81-3.13-9.54-5.33-19.18-7.37-3.18-.67-6.51-1.22-10.11-1.67,0,4.9,0,27.07,0,27.07,0,1.25-.06,2.51-.19,3.75,0,2.38,0,4.77-.02,7.15,0,0-.02,5.07-.04,10.94ZM343.76,506.5c.22,0,.45,0,.68-.01.91-.13,1.83-.23,2.74-.3.75-.1,1.5-.18,2.24-.24,1.03-.08,2.59-.2,5.51-3.19,1.77-1.81,3.4-5.41,5.14-11.33,1.33-4.52,2.09-9.99,2.72-15.23.03-.22.05-.43.08-.65.06-.83.15-1.67.27-2.49v-.27c.06-.76.12-1.53.21-2.29.04-1.18.13-2.36.27-3.52l.08-2.49c.03-1.04.11-2.09.23-3.13-.05-1.76-.1-4.27.17-7.3v-9.86c-.29-3.48-.22-6.47-.17-8.48,0-.23.01-.5.02-.75-.16-1.26-.25-2.54-.27-3.82l-.12-6.83c-.27-2.66-.27-4.94-.24-6.44-.12-1.1-.2-2.22-.22-3.32l-.12-5.96c-.18-1.84-.24-3.5-.25-4.93-1.4.65-2.77,1.27-4.14,1.88-1.68.75-8.11,3.58-8.11,3.58-4.63,2.04-9.54,3.08-14.59,3.08-3.49,0-6.88-.5-10.1-1.43v2.47c0,1.35-.08,2.71-.23,4.06.03,1.51.03,3.82-.25,6.51l-.11,5.22c-.02,1.08-.1,2.17-.22,3.25.03,1.61.03,3.98-.28,6.8l-.07,1.61c-.11,2.54-.22,5.17-.1,6.72.14,1.84.13,3.69-.01,5.53.16,2.07.15,4.16-.04,6.23-.04.61.07,2.65.14,4l.03.61c.2,1.55.31,3.09.33,4.68.09.85.16,1.7.2,2.55l.05,1.32c.09.71.16,1.43.21,2.16.11.77.19,1.55.24,2.32.88,12.28,3.21,20.43,7.58,26.43,1.25,1.71,2.07,2.44,5.29,2.71.63.05,1.28.12,1.93.21.95.07,1.9.17,2.85.31.14,0,.27,0,.41,0ZM510.3,396.25c14.34,1.85,31.01,4.32,47.98,10.03,2.37.79,4.67,1.62,6.9,2.47l-.1-10.85c0-.24-.03-.48-.04-.72l-.03-.44c-.26-4.16-.75-11.94,2.03-20.91.81-2.63,1.9-5.12,3.23-7.42-2.52.7-5.14,1.34-7.87,1.94-2.89.63-5.65.93-8.44.93-5.5,0-10.92-1.24-15.84-3.58-4.94,2.23-10.14,3.35-15.54,3.35-13.91,0-26.35-7.56-33.28-20.22l-.12-.23c-1.35-2.5-2.72-5.01-4.15-7.62-.83,1.75-1.64,3.49-2.44,5.24-5.1,11.15-14.44,18.99-25.5,21.84,2.54,5.14,3.97,10.98,4,17.21,0,2.14.03,4.29.05,6.43.65-.02,1.3-.04,1.96-.07.48-.02.97-.03,1.45-.03,1.49,0,2.99.09,4.47.28.48,0,.95-.01,1.43-.02,1.07-.02,2.06-.04,3.05-.04,2.23,0,4.26.08,6.19.25l5.26.11c1.06.02,2.12.09,3.17.21,1.72,0,3.43.11,5.09.32.63.02,1.26.04,1.9.06,1.02.03,2.05.11,3.06.23,1.43.05,2.85.17,4.25.36l.38.02c1.02.05,2.06.15,3.08.3,1.48.11,2.95.31,4.4.58ZM287.94,352.71c3.12,0,6.18.37,9.12,1.1,1.87-5.19,4.89-10.04,9.01-14.26,3.84-3.93,7.6-6.93,10.63-9.34,1.2-.96,2.33-1.85,3.16-2.58,2.12-1.84,4.26-3.78,6.52-5.83.71-.64,1.42-1.28,2.13-1.92-1.83-5.28-2.95-10.69-3.37-16.17l-89.05,45.48c.56,0,1.1-.02,1.64-.03.35,0,.7-.01,1.03-.01,6.84,0,13.28,1.54,18.96,4.5,2.88-.64,5.85-.96,8.89-.96.5,0,1.01,0,1.54.03,2.04.07,4.27.1,7.25.1,1.43,0,2.86,0,4.28-.01,1.66,0,3.23-.01,4.8-.01h.96c.84-.05,1.68-.08,2.5-.08ZM501.27,213.76c5.05,2.71,10.23,7.06,14.47,13.98l.22.36c1.84,3.09,3.71,6.18,5.58,9.27.72,1.19,1.43,2.38,2.15,3.56,7.8-9.64,16.78-14.82,20.37-16.9,9.56-5.52,19.94-9.47,30.85-11.74l-35.35-18.1-38.3,19.56Z"/>
  <path class="cls-10" d="M1067.93,294.95c-.46-8.54-5.41-16.19-13-20.11L550.63,14.72c-3.46-1.79-7.25-2.68-11.04-2.68s-7.57.89-11.03,2.67L25.08,274.16c-7.54,3.88-12.47,11.45-13,19.91-.53,8.46,3.44,16.58,10.44,21.36l40.32,27.58c4.08,2.79,8.82,4.2,13.59,4.2,3.73,0,7.47-.87,10.91-2.62l31.25-15.9,4.4,7.87c4.4,7.87,12.58,12.34,21.04,12.34,3.69,0,7.42-.85,10.92-2.63l39.3-20.05,1.76,3.31c4.32,8.13,12.65,12.79,21.28,12.79,3.69,0,7.43-.85,10.93-2.64l111.15-56.77c-4.97,16.57-1.48,30.32,3.58,40.21-.32.28-.61.55-.94.83-1.21,1.06-2.41,2.13-3.6,3.19-1.32,1.18-2.64,2.38-3.96,3.57-2.32,2.1-4.52,4.09-6.72,6-1.02.89-2.25,1.86-3.54,2.89-2.91,2.32-6.21,4.95-9.52,8.34-7.22,7.4-9.52,17.51-6.46,26.87-4.67-6.21-12.04-10.08-20.28-10.08-.81,0-1.53.04-2.1.08-.45,0-.91,0-1.36,0-1.55,0-3.1,0-4.65.01-1.48,0-2.95.01-4.43.01-3.11,0-5.47-.03-7.64-.11-.39-.01-.77-.02-1.14-.02-4.19,0-7.72.84-10.64,2.03-3.74-2.87-9.34-5.57-17.22-5.57-.25,0-.51,0-.78,0-3.53.07-7.31.11-12.26.11-2.29,0-4.58,0-6.88-.01-2.34,0-4.68-.01-7.02-.01-.87,0-1.73,0-2.57,0-.71-.07-1.62-.13-2.65-.13-11.19,0-20.73,6.89-24.28,17.54-1.18,3.54-1.52,7.28-1.01,10.93-.03,1.24,0,2.92.24,4.87l.11,4.52c.02.96.11,1.92.24,2.86-.04,1.47-.09,3.59.21,6.13l.12,6.39c.02,1.09.11,2.17.28,3.24,0,.27-.02.53-.02.8-.05,1.74-.12,4.19.18,7.07l.14,12.3c.01,1.05.09,2.09.24,3.12,0,20.13,0,40.25,0,60.36-.15,1.04-.23,2.09-.24,3.15l-.14,15.29c-.3,3.13-.23,5.86-.18,7.95.02.71.04,1.66.03,2.09-.17,1.1-.26,2.21-.28,3.32l-.13,9.41c-.3,2.8-.23,5.17-.19,6.85,0,.2.01.41.02.61-.16,1.06-.25,2.13-.27,3.21l-.13,7.56c-.31,2.74-.24,5.03-.19,6.55-.15,1.02-.24,2.05-.26,3.08l-.12,6.33c-.28,2.36-.26,4.34-.21,5.73-.14.95-.21,1.92-.24,2.88l-.12,5.72c-.29,2.36-.27,4.35-.22,5.74-.24,1.68-.3,3.38-.19,5.07.06,3.51.69,6.54,1.62,9.13h-38.42c-5.81,0-11.13,2.05-15.29,5.48-5.64,4.41-9.27,11.27-9.27,18.98v67.06c0,13.3,10.78,24.07,24.07,24.07h112.94c.14,0,10.85,0,10.85,0,.4,0,.79-.04,1.18-.06.42.02.83.06,1.25.06h573.36c4.39,0,8.49-1.19,12.04-3.25,1.38-.23,2.74-.56,4.07-1l51-16.86c2.18-.72,4.22-1.68,6.12-2.82,1.8-.23,3.58-.62,5.3-1.21l23.58-8.11c10.05-3.46,16.87-12.92,16.96-23.55.1-10.63-6.54-20.22-16.52-23.86l-23.97-8.76c-2.3-.84-4.69-1.34-7.11-1.51-.65-.31-1.32-.61-2.01-.88l-52.22-20.52c-2.92-1.15-5.98-1.74-9.09-1.83-2.55-.92-5.28-1.44-8.15-1.44h-43.45c1.26-3.84,1.63-8.04,1.03-12.58l-.12-3.05c-.03-.83-.11-1.66-.23-2.48-.03-.85-.1-1.88-.26-3.02l-.09-2.12c-.03-.74-.1-1.48-.19-2.21-.04-2.56-.48-6.35-2.3-10.47-.03-.07-.06-.14-.09-.21-.2-.43-.4-.86-.63-1.3-.18-.36-.38-.71-.58-1.05-.07-.12-.13-.24-.2-.37-.08-.14-.18-.27-.26-.4-.19-.3-.38-.6-.58-.89-.17-.25-.35-.49-.53-.73-.22-.29-.43-.59-.67-.87-.13-.16-.27-.3-.4-.46-.3-.35-.59-.7-.92-1.03-.19-.2-.4-.36-.59-.55-.26-.25-.52-.49-.79-.73-.31-.28-.63-.54-.95-.8-.18-.14-.36-.27-.54-.41-1.28-.96-2.63-1.77-4.04-2.44-.04-.02-.07-.04-.11-.06-.04-.02-.08-.03-.12-.05-.48-.22-.96-.43-1.44-.62-.38-.15-.77-.29-1.15-.43,1.83-4.06,3.59-8.1,5.33-12.08,1.32-3.03,2.63-6.05,3.97-9.05.9-2.01,1.71-3.96,2.5-5.84.24-.03.48-.06.72-.1.59.02,1.18.03,1.77.03,1.53,0,2.99-.08,4.4-.24l5.77-.11c.98-.02,1.96-.1,2.92-.24.53.02,1.06.03,1.58.03,1.48,0,2.9-.08,4.27-.24,1.87-.05,3.75-.09,5.62-.12.99-.02,1.98-.1,2.96-.24.61.02,1.23.03,1.84.03,1.56,0,3.05-.08,4.49-.26l5.17-.11c.99-.02,1.98-.1,2.96-.25.6.02,1.2.03,1.8.03,1.53,0,2.98-.08,4.39-.24l4.23-.08c.11.19.21.38.32.57,2.18,3.94,4.23,7.67,6.17,11.4,4.46,8.6,8.9,17.49,13.2,26.09,0,0,3.73,7.46,3.75,7.49,2.14,4.21,8.64,17.03,24.51,17.03,7.9,0,13.38-3.5,16.97-5.78,2.16-1.37,4.29-2.78,6.42-4.2,2.6-1.73,5.06-3.36,7.45-4.82,12.83-7.74,16.86-22.72,9.61-35.61-10.45-18.73-21.31-38.33-33.22-59.93-6.15-11.16-12.29-22.32-18.43-33.48-10.62-19.31-21.59-39.27-32.47-58.88-2.78-5.03-5.76-9.54-8.63-13.9-.71-1.08-1.42-2.15-2.12-3.22-6.89-11.01-16.61-12.65-21.79-12.65-4.46,0-15.59,1.36-22.67,14-.95,1.69-1.9,3.37-2.86,5.05-2.9,5.09-5.89,10.35-8.72,16.04-2.09,4.23-4.26,8.5-6.45,12.76-5.26-5.75-12.57-8.46-19.52-8.46-1.58,0-3.19.14-4.8.41-1.67.11-3.3.36-4.88.76-5.05.94-10.42,2.01-16.01,3.58-12.05,3.4-24.57,8.22-38.28,14.75-10.03,4.77-21.75,10.85-32.59,19.71-4.73,3.87-9.05,7.75-13.03,11.7v-13.63c.18-1.29.28-2.6.28-3.93,0-15.41,0-30.83-.01-46.21.64-10.41-4.79-19.87-14.13-24.37-3.26-1.57-6.82-2.38-10.44-2.38,0,0-24.86,0-24.86,0-10.55,0-19.88,6.87-23,16.96-2.12,6.86-1.74,12.97-1.52,16.62.03.56.08,1.12.09,1.69l.16,16.45c0,1.05.09,2.09.23,3.13,0,.16,0,.33.01.51.03,1.01.02,2.25,0,3.57-.03,1.91-.05,4.14.05,6.57-6.78-3.96-14.39-7.33-23.12-10.24-15.77-5.3-31.38-7.66-46.07-9.55-1.23-.25-2.48-.41-3.76-.49-.8-.13-1.62-.21-2.43-.25l-.93-.05c-1.3-.2-2.63-.31-3.97-.33-.84-.12-1.69-.19-2.54-.22-.84-.03-1.68-.05-2.51-.09-1.39-.19-2.8-.29-4.28-.29-.17,0-.34,0-.51,0-.9-.12-1.81-.19-2.73-.21l-5.69-.12c-1.71-.17-3.5-.24-5.51-.24-.91,0-1.83.02-2.74.03-.6.01-1.2.03-1.8.03-.51,0-.77-.01-.83-.01-.01,0-.01,0,0,0-1.19-.18-2.38-.27-3.58-.27-.32,0-.64,0-.97.02-2.81.11-5.57.17-8.21.17-2.05,0-4.07-.04-6.05-.11-.03-.73-.05-1.46-.09-2.21l-.05-3.99c-.06-4.07-.11-8.14-.13-12.2-.05-14.87-11.16-26.08-25.84-26.08-.08,0-.22,0-.31,0-3.6.04-7.2.05-10.8.05-3.13,0-6.25-.02-9.37-.04.29-.86.53-1.73.73-2.62.26.02.5.05.76.07,1.57.24,3.18.35,4.87.35.28,0,.55,0,.83,0,1.1.15,2.21.23,3.32.23.88,0,1.76-.05,2.63-.14.87.09,1.74.14,2.61.14,1.12,0,2.24-.08,3.34-.23.4.01.8.02,1.21.02h0c1.72,0,3.35-.11,4.94-.35.09,0,.19,0,.28,0,3.36,0,6.52-.5,9.45-1.48,3.88,1.58,7.4,1.99,9.96,1.99h0c10.43,0,19.4-6,23.98-16.01,1.47-3.2,2.97-6.37,4.47-9.55.49-1.03.98-2.06,1.47-3.1l3.52-.06c1-.02,1.99-.1,2.97-.24.52.02,1.04.03,1.55.03,1.48,0,2.9-.08,4.28-.25l1.7-.03c2.71,4.91,5.5,9.98,8.17,14.93.02.04.05.09.07.13,4.78,8.74,13.28,13.96,22.72,13.96,5.11,0,10-1.5,14.54-4.45.07-.05.15-.1.22-.15.36-.24.69-.45,1.02-.67,4.31,3.47,9.73,5.5,15.6,5.5,1.92,0,3.84-.22,5.88-.66,11.04-2.4,19.89-5.64,27.83-10.2.42-.24.91-.52,1.44-.84,1.83,1.71,4.09,3.34,6.89,4.7,1.7.82,2.99,1.54,3.96,2.18,4.72,3.18,9.8,4.8,15.12,4.8h0c10.2,0,19-5.8,23.56-15.59,1.23-2.65,2.49-5.29,3.75-7.93.81-1.7,1.64-3.43,2.46-5.17l3.27-.06c1.02-.02,2.03-.1,3.03-.25.5.01.99.02,1.49.02,1.46,0,2.85-.08,4.2-.24l1.96-.04,2.08,3.77c2.21,3.99,4.41,7.98,6.61,11.96,6.91,12.57,18.75,13.55,22.21,13.55s9.06-.81,14.63-4.65c1.78-1.22,3.64-2.46,5.15-3.26,9.33-4.83,12.63-12.36,13.77-16.43,1.4-5.01,1.94-12.82-3.45-21.56-5.57-9.05-11.04-18.29-16.18-26.98-6.1-10.32-12.24-20.72-18.34-31.09l165.87,84.93c3.51,1.8,7.26,2.65,10.95,2.65,8.37,0,16.47-4.38,20.91-12.11l2.45-4.28,39.27,20.04c3.5,1.79,7.24,2.64,10.93,2.64,8.53,0,16.78-4.55,21.14-12.53l3.61-6.61,30.27,15.5c3.46,1.77,7.22,2.65,10.97,2.65,4.64,0,9.26-1.34,13.26-3.98l42.23-27.87c7.13-4.71,11.24-12.85,10.78-21.38ZM744.41,479.01c-1.96,3.75-3.91,7.5-5.85,11.26-1.3,2.53-2.62,5.05-3.94,7.57-2.99,5.73-6.09,11.66-9.03,17.64-4.99,10.06-10.41,20.31-15.64,30.22-1.84,3.45-2.83,7.07-3.1,10.66-1.73-.81-3.36-1.69-4.9-2.66-10.62-6.74-14.88-14.15-14.45-25.34.14-.94.23-1.82.28-2.63.1-.62.17-1.24.21-1.86.53-7.01,3.68-13.57,9.92-20.66,9.66-10.97,22.88-19.09,41.62-25.55,2.29-.79,4.51-1.5,6.7-2.15-.61,1.17-1.22,2.34-1.82,3.5ZM264.6,553.56h-.8c-.42.01-.84.03-1.25.05l-.02-2.04c0-.26-.02-.52-.03-.78.67.92,1.38,1.85,2.11,2.77ZM345.71,610.99c.57-2.53.79-5.2.62-8.01.02-4.75.02-9.5.02-14.24v-2.1s3.08,0,3.08,0c1.15,0,2.3-.08,3.44-.25,1.42-.05,2.82-.2,4.19-.46,14.58-1.66,27.7-5.89,39.03-12.58,6.33-3.74,12.08-8.1,17.28-13.01-.02,1.35,0,2.58.02,3.62.01.52.03,1.2.02,1.58-.16,1.08-.26,2.16-.27,3.25l-.12,7.47c-.32,2.78-.25,5.1-.2,6.64h0c-.15,1.02-.23,2.04-.25,3.06l-.11,5.6c-.27,2.18-.27,4.02-.23,5.35-.22,1.52-.29,3.05-.21,4.59.17,3.4.98,6.6,2.29,9.49h-68.6ZM487.12,474.36c8.57.5,16.73,1.39,24.65,3.05,11.65,2.47,18.91,5.4,24.3,9.83,2.69,2.2,10.87,8.89,5.33,24.14-4.22,11.67-12.35,21.06-25.57,29.54-8.81,5.65-18.39,9.67-29.03,12.14.02-4.94.1-27.67.1-27.67.02-2.59.02-5.17.02-7.76.13-1,.19-2.02.19-3.06v-12.48c0-9.12,0-18.41,0-27.74ZM432.76,287.88l-1.2,2.16c-1.18,2.15-2.35,4.31-3.53,6.47-.64,1.18-1.27,2.34-1.9,3.5-.85.08-1.63.18-2.35.29h-.7c-.42,0-.83,0-1.25.01-.53.01-1.06.04-1.6.09-1.37.13-2.75.19-4.11.19s-2.73-.06-4.08-.19c-.74-.07-1.49-.1-2.24-.1-.3,0-.6,0-.9.02h-.32c-1.98,0-4.68-.65-8.49-2.05-1.12-.41-1.64-.84-1.84-1.04.04-.22.16-.67.54-1.36,1.19-2.11,3.5-5,10.95-8.6,4.98-2.41,10.7-4.08,17.48-5.09,4.03-.6,7.72-2.03,10.93-4.12-1.81,3.3-3.63,6.6-5.42,9.83ZM313.38,384.63c4.15,10.71,14.09,15.54,22.5,15.55h.02c3.36,0,6.68-.71,9.73-2.05,0,0,6.4-2.83,8.08-3.57,7.28-3.23,14.25-6.79,21.01-10.4-.11,1.11-.16,2.26-.14,3.48.04,1.85.02,3.83,0,5.94-.01.95-.02,1.91-.03,2.86,0,1.26.08,2.52.27,3.76,0,.21-.01.42-.02.63-.05,1.73-.11,4.16.2,7.04l.13,6.47c.02.99.1,1.99.24,2.97-.05,1.5-.1,3.67.21,6.27l.13,7.38c.02,1.08.11,2.17.28,3.24,0,.41-.01,1.22-.03,1.83-.05,2.01-.11,4.63.17,7.65v10.96c-.28,2.73-.22,5.04-.17,6.7,0,.22.01.43.02.65-.14.95-.23,1.91-.26,2.87l-.09,3.07c-.18,1.32-.25,2.51-.26,3.49-.09.67-.16,1.34-.19,2.01l-.04.83c-.15.95-.23,1.82-.28,2.58-.04.26-.08.53-.11.8-.69,5.76-1.55,11.82-3.12,17.19-2.38,8.1-4.8,12.99-8.08,16.35-5.4,5.53-9.9,6.53-13.21,6.78-.62.05-1.24.12-1.86.21-.96.06-1.9.17-2.84.32-.64.04-1.26.05-1.87.05-.53,0-1.06-.01-1.58-.04-.97-.16-1.95-.27-2.95-.33-.55-.08-1.1-.15-1.66-.2-6.33-.53-10.53-2.8-14.03-7.62-5.77-7.93-8.81-18-9.85-32.65-.05-.65-.12-1.29-.22-1.93-.04-.73-.12-1.52-.24-2.36l-.08-1.87c-.03-.76-.1-1.51-.2-2.26,0-1.15-.06-2.64-.3-4.36-.02-.37-.04-.73-.06-1.1-.12-2.27-.23-4.41-.1-5.75.16-1.7.14-3.41-.06-5.1.18-1.54.22-3.09.1-4.63-.17-2.25-.05-5.1.08-8.13.03-.68.06-1.36.08-2.04.33-2.7.28-4.95.23-6.47.14-.96.22-1.94.24-2.91l.13-5.75c.31-2.62.26-4.8.21-6.31.17-1.15.25-2.31.25-3.47v-19.7c0-1.15-.08-2.3-.25-3.44-.06-1.82-.33-4.31-1.19-7.09.23.35.44.67.63.96.14.21.28.42.42.63ZM526.26,610.99c16.43-5.99,30.72-13.5,43.27-22.72,4.49-3.31,8.63-6.77,12.48-10.38.61.86,1.28,1.72,2.06,2.56,4.55,5.05,11.04,7.97,17.89,7.97.02,0,13.03-.04,13.03-.04,1.11,0,2.21-.08,3.3-.24.35,0,.7-.02,1.05-.04.37,0,.74.02,1.11.03.86.03,1.73.05,2.59.05,3.35,0,6.25-.32,9.14-1.01.56-.13,1.1-.29,1.64-.46,4.42,5.49,9.51,10.57,15.24,15.18,4.12,3.32,8.54,6.33,13.26,9.11h-136.06ZM628.84,235.15l-2.32,4.15c-1.93,3.45-3.87,6.9-5.77,10.31-4.12,7.36-8.09,14.81-11.94,22.02-1.14,2.13-2.28,4.27-3.42,6.4-.94-.95-1.95-1.88-3.04-2.79,5.37-4.77,7.36-10.68,8-13.21,2.24-8.85-.63-16.07-1.85-19.15l-.03-.08c-3.49-13.42-14.81-19.45-24.73-19.45-1.87,0-3.74.19-5.72.59-9.9,1.98-19.29,5.52-27.93,10.51-7.11,4.11-17.25,11.06-23.23,23.95-1.09,2.36-1.94,4.74-2.58,7.13-1.8-3.08-3.61-6.18-5.43-9.25-2.5-4.22-5.03-8.41-7.56-12.61-1.89-3.14-3.79-6.27-5.67-9.42-.05-.08-.1-.16-.14-.24-6.97-11.39-17.44-12.62-21.62-12.62-9.24,0-17.52,5.08-22.12,13.55-.67,1.22-1.45,2.55-2.27,3.95-.98,1.67-2,3.4-3.08,5.39-2.21,4.1-4.41,8.2-6.61,12.3,0-1.82-.17-3.68-.54-5.53-.21-1.07-.4-2.15-.6-3.23-.18-1.01-.36-2.01-.55-3.01-1.03-5.44-3.58-10.16-7.14-13.78l98.65-50.38,94,48.13c-1.7,1.7-3.31,3.77-4.74,6.34Z"/>
  <g>
    <g>
      <path class="cls-1" d="M593.33,488.96c-.24-1.01-.5-2.02-.67-3.05-1.92-11.5-7.35-21.1-15.89-28.91-8.67-7.88-18.99-12.82-29.99-16.49-13.93-4.68-28.33-6.82-42.83-8.67-.96-.41-2.06.1-3.03-.41-.91-.05-1.82-.1-2.71-.14-1.37-.5-2.86.14-4.23-.43-1.49-.05-2.95-.1-4.42-.17-1.75-.5-3.6.22-5.35-.41-2.26-.05-4.49-.1-6.75-.14-4.27-.55-8.6.22-12.89-.43-5.98.24-11.96.26-17.94,0-2.81.53-5.64.1-8.48.24-.91.05-2.04-.17-1.66,1.42.05,2.04.1,4.11.14,6.17.62,2.52-.1,5.11.43,7.64.05,2.81.1,5.62.14,8.43.67,3.51-.12,7.08.43,10.59.05,4.51.1,9.05.14,13.57.36.74.24,1.51.24,2.28v61.56c0,.74.14,1.54-.24,2.26-.05,4.73-.1,9.46-.14,14.19-.55,3.7.22,7.44-.43,11.14-.05,3-.1,6-.14,9-.55,2.74.22,5.52-.43,8.26-.05,2.43-.1,4.85-.14,7.27-.53,2.16.19,4.42-.43,6.58.07,1.44,1.01,1.49,2.16,1.46,3.22-.07,6.46-.05,9.68-.05,1.94-.62,3.99.1,5.95-.43,1.27-.05,2.55-.1,3.82-.14,1.18-.53,2.47.02,3.67-.43,3.03.05,6.05-.36,8.98-.82,8.93-1.39,17.86-2.86,26.68-5.09,20.91-5.31,40.72-13.04,58.25-25.91,12.53-9.24,22.71-20.43,29.68-34.53,4.51-9.12,6.82-18.8,8.38-28.74.48-1.2-.1-2.5.43-3.67v-9.89c-.48-.98,0-2.11-.41-3.1ZM564.03,519.57c-6.58,18.18-19.23,31.36-35.2,41.61-16.42,10.54-34.57,16.23-53.93,18.18-3.15.34-6.34.34-9.46.74-2.35.29-2.91-.53-2.88-2.79.17-17.36.19-34.72.26-52.08.02-3.55.02-7.11.02-10.66h.19c0-20.7.02-41.42-.05-62.14-.02-2.21.48-2.88,2.81-2.83,17.07.26,34.14.72,50.95,4.25,12.46,2.64,24.49,6.48,34.55,14.74,15.27,12.49,19.95,31.09,12.73,50.97Z"/>
      <path class="cls-11" d="M289.28,421c-.05,2.42-.11,4.84-.16,7.26-.61,2.54.1,5.16-.42,7.71-.15,4.72-.51,9.43-.16,14.16-.39,1.9-.39,3.8,0,5.7-.37,3.95,0,7.89.15,11.84.49,1.59-.16,3.28.42,4.86l.15,3.77c.41,1-.05,2.12.41,3.12,1.16,16.2,4.65,31.7,14.4,45.1,7.74,10.64,18.38,16.36,31.51,17.45.99.48,2.1,0,3.09.41,3.47.33,6.93.31,10.4,0,.99-.41,2.1.08,3.07-.41,11.38-.86,20.71-5.88,28.61-13.96,7.27-7.44,11.11-16.68,13.96-26.39,2.02-6.88,3.07-13.98,3.93-21.1.5-.97-.01-2.09.43-3.07.05-.9.1-1.8.14-2.7.58-1.36-.07-2.84.43-4.21.05-1.65.1-3.3.15-4.95.64-3.13-.12-6.31.42-9.44,0-4.61,0-9.23,0-13.84-.57-3.91.24-7.86-.42-11.76-.05-2.99-.1-5.97-.15-8.96-.54-2.55.22-5.17-.42-7.72l-.15-7.82c-.55-3.13.22-6.33-.43-9.46.02-3.15.1-6.3.03-9.45-.03-1.37.41-1.82,1.79-1.81,7.57.05,15.14.07,22.71,0,1.68-.02,1.81.76,1.82,2.09.02,5.65.12,11.3.19,16.94.41,7.01.06,14.03.19,21.04.02,1.13-.21,2.28.24,3.38-.29,2.89-.34,5.79,0,8.68-.55,4.32-.09,8.66-.25,12.99-.04,1.13.17,2.27-.17,3.38-.05,2.43-.1,4.85-.16,7.28-.6,1.76.09,3.62-.42,5.39-.05,1.45-.1,2.89-.16,4.34-.52,1.2.03,2.52-.43,3.72-.05.9-.1,1.8-.15,2.7-.5.97,0,2.07-.42,3.05-1.41,9.07-2.56,18.19-5.31,27-6,19.23-16.77,34.98-34.3,45.35-9.39,5.55-19.86,8.43-30.75,9.52-1.18.45-2.47-.12-3.64.42-4.84,0-9.67,0-14.51,0-1.19-.52-2.5.03-3.7-.42-7.99-.56-15.72-2.36-23.14-5.33-6.13-2.45-11.62-5.9-16.77-10.15-8.23-6.8-13.57-15.54-17.84-24.99-2.74-6.08-4.55-12.52-5.53-19.23-.74-5.08-1.4-10.15-1.91-15.25-.42-.99.06-2.11-.42-3.09-.06-1.08-.11-2.16-.17-3.24-.4-.99.08-2.09-.41-3.07-.05-1.09-.1-2.17-.15-3.26-.5-1.37.15-2.85-.43-4.21-.05-1.28-.1-2.57-.15-3.85-.5-1.56.18-3.23-.42-4.78-.05-1.48-.1-2.95-.15-4.43-.54-1.96.2-4-.43-5.96-.05-2.24-.11-4.47-.16-6.71-.54-2.74.22-5.54-.42-8.27,0-11.17,0-22.33,0-33.5.58-1.57-.06-3.25.41-4.83.05-1.11.1-2.21.16-3.32.54-.95-.02-2.06.44-3.02-.04-2.19.81-2.94,3.19-2.86,6.59.22,13.19.06,19.78.1.94,0,2.21-.53,2.55,1.04.47,1.17-.13,2.46.43,3.62,0,6.57,0,13.13,0,19.7-.64,2.55.11,5.18-.42,7.74Z"/>
      <path class="cls-9" d="M206.88,437.54c-.05-4.56-.1-9.12-.15-13.67-.55-3.29.25-6.64-.42-9.92-.05-2.64-.1-5.28-.15-7.92-.53-2.52.21-5.11-.42-7.62-.05-2.07-.1-4.13-.16-6.2-.52-1.94.22-3.96-.42-5.89.54-1.62,1.91-.95,2.93-.96,10.13-.04,20.26.12,30.39-.09,3.01-.06,3.95.81,3.37,3.63-.09.45.04.95.06,1.42-.63,1.94.11,3.97-.43,5.92-.05,2.06-.1,4.12-.15,6.19-.65,2.32.11,4.72-.42,7.05-.05,2.64-.1,5.27-.16,7.91-.65,2.71.13,5.49-.43,8.21-.05,3.02-.1,6.04-.15,9.05-.64,3.1.12,6.26-.42,9.37-.05,3.4-.1,6.81-.15,10.21-.65,3.68.12,7.41-.42,11.09-.05,4.36-.1,8.73-.15,13.09-.55,3.99-.09,7.99-.25,11.99-.04,1.04.17,2.1-.18,3.13-.05,7.05-.1,14.1-.15,21.15-.49,1.59-.22,3.22-.23,4.83-.03,9.75-.02,19.5,0,29.25,0,1.04-.22,2.1.23,3.11.05,4.17.1,8.34.15,12.51.54,2.14-.21,4.36.42,6.49.05,1.48.11,2.97.16,4.45.47.84-.2,1.87.47,2.67,2.69.46,5.39.17,8.08.08,4.38-.4,8.78-.06,13.17-.19,1.04-.03,2.1.22,3.11-.24,5.51-.05,11.03-.1,16.54-.15,4.38-.4,8.78-.06,13.17-.19,1.04-.03,2.1.22,3.11-.24,5.71-.05,11.41-.1,17.12-.15q8.32-.84,8.32,7.15c0,6.51.01,13.01-.02,19.52,0,.93.31,1.92-.33,2.78-3.76-.01-7.52-.02-11.27-.04-3.87-.67-7.79.14-11.66-.43-3.79-.05-7.59-.1-11.38-.15-3.86-.68-7.78.13-11.65-.43-3.98-.05-7.96-.1-11.95-.15-3.87-.67-7.79.14-11.66-.43-3.98-.05-7.95-.1-11.93-.15-3.68-.65-7.42.12-11.1-.42-3.98-.05-7.96-.1-11.94-.15-3.68-.65-7.41.12-11.09-.42-2.89.3-2.04-1.92-2.28-3.4.65-2.32-.12-4.72.42-7.04.05-2.44.1-4.89.16-7.33.64-2.32-.11-4.73.42-7.06.05-2.64.1-5.29.15-7.93.66-2.7-.12-5.48.43-8.19.05-3.02.1-6.04.15-9.06.64-3.1-.11-6.26.42-9.36.05-3.6.1-7.19.15-10.79.68-4.06-.14-8.17.43-12.24.05-5.51.1-11.02.15-16.53.39-.72.24-1.5.24-2.26,0-20.87,0-41.74,0-62.61,0-.75.16-1.54-.24-2.25Z"/>
      <path class="cls-1" d="M916.14,556.45c-11.14-19.98-22.23-40-33.28-60.02-16.98-30.78-33.83-61.59-50.88-92.32-2.98-5.38-6.51-10.49-9.87-15.65-.89-1.37-1.58-3.03-3.27-.02-3.72,6.65-7.61,13.18-11,20-6.67,13.52-13.83,26.8-20.67,40.22-4.03,7.88-8.16,15.7-12.17,23.58-4.95,9.72-10.06,19.4-15.05,29.08-4.27,8.28-8.67,16.49-12.8,24.87-5.14,10.35-10.54,20.58-15.94,30.8-.84,1.56-.26,2.26.79,2.95,5.35,3.58,10.8,7.01,16.06,10.73,1.73,1.25,2.38.55,3.17-.77.38-.65.72-1.32,1.08-1.99,6.39-12.08,11.52-24.73,17.07-37.19,2.88-6.46,5.21-13.18,8.86-19.33,1.99-.74,4.11.1,6.12-.48,2.26-.05,4.49-.1,6.75-.14,2.52-.62,5.11.1,7.66-.43,2.43-.05,4.85-.1,7.28-.14,2.33-.62,4.78.1,7.13-.41,2.43-.07,4.85-.12,7.28-.17,2.52-.62,5.14.12,7.68-.43,2.26-.05,4.49-.1,6.72-.14,2.55-.62,5.14.1,7.68-.43,2.4-.05,4.83-.1,7.25-.14,2.35-.62,4.78.12,7.13-.41,3.22-.62,5.86-.22,7.61,3.12,3.94,7.47,8.19,14.79,12.08,22.28,5.79,11.16,11.36,22.43,17,33.69,2.45,4.83,2.45,4.9,7.16,1.9,4.8-3.05,9.46-6.34,14.31-9.29,1.61-.96,2.04-1.54,1.06-3.29ZM789.2,494.75c10.11-22.98,20.65-45.23,32.92-67.64,12.77,21.56,24.13,43.03,35.05,65.14-22.83.84-45.11,1.66-67.97,2.5Z"/>
      <path class="cls-11" d="M773.85,604.59c-2.44.25-4.88.49-7.32.74-.99.41-2.1-.07-3.08.41-1.28.06-2.56.11-3.83.17-1.39.45-2.88-.14-4.26.41-3,.05-5.99.11-8.99.16-1.33.28-2.67.28-4,0-3.01-.05-6.01-.1-9.02-.16-1.37-.56-2.85.05-4.23-.41-1.09-.06-2.18-.11-3.26-.17-.98-.5-2.09.01-3.07-.43-10.68-1.17-21.17-3.28-31.24-7.05-9.85-3.69-19.08-8.43-27.4-15.13-8.85-7.12-15.75-15.59-20.47-25.78-3.09-6.66-4.82-13.81-5.07-21.22-.28-3.06-.3-6.12,0-9.18.37-10.4,3.59-20.07,8.24-29.21,3.48-6.85,7.87-13.15,12.86-19.1,5.81-6.92,12.27-13.03,19.24-18.72,8.44-6.9,17.96-11.97,27.7-16.61,11.14-5.3,22.56-9.96,34.47-13.31,4.96-1.4,10-2.38,15.06-3.3.98-.44,2.09.08,3.06-.43,2.97-.6,3.54,1.22,3.83,3.6.64,5.17,1.4,10.33,2.19,15.48.23,1.49.1,1.91-1.74,2.11-10.91,1.18-21.49,3.89-31.85,7.46-19.77,6.82-37.82,16.48-51.84,32.4-8.74,9.93-14.84,21.23-15.86,34.75-.46,1.01,0,2.13-.42,3.15-1.54,21.51,7.63,37.5,25.49,48.83,9.47,6.01,20.03,9.24,31.05,11.06,3.66.6,7.3,1.4,11.05,1.21,1,.46,2.12.02,3.13.4,4.04.34,8.08.36,12.12.02,1.2-.45,2.52.09,3.71-.42.87-.05,1.75-.1,2.62-.15.96-.46,2.07.09,3.03-.44,2.49.21,4.9-.48,7.34-.74.97-.41,2.07.11,3.02-.42,1.49-.05,2.98-.1,4.46-.15,1.34-.18,2.69-.47,4,.16l-.04-.04c.82,1.31-.08,2.86.58,4.2.05,1.29.11,2.58.16,3.86.43,1.21-.1,2.52.41,3.72.06,1.45.11,2.9.17,4.34.24,1.79.94,3.81-2.02,3.96Z"/>
      <path class="cls-9" d="M601.91,445.59c-.05-5.51-.1-11.03-.15-16.54-.4-4-.06-8.01-.19-12.01-.03-1.04.22-2.1-.24-3.11-.05-5.51-.1-11.03-.16-16.54-.06-3.63-.76-7.28.35-10.87,8.28,0,16.57,0,24.85,0,.83.4.5,1.17.5,1.78.02,15.7.02,31.41.02,47.11,0,.39-.05.76-.18,1.13-.03.77-.09,1.53-.09,2.3,0,41.64,0,83.27,0,124.91-2.86.68-5.76.13-8.64.32-1.02.06-2.06-.21-3.05.24-4.32.01-8.64.02-12.95.04-.12-.15-.33-.3-.33-.46,0-10-.27-20.01.12-30.01.05-11.65.1-23.3.15-34.96.53-2.65.18-5.33.23-8,.15-8.71-.22-17.41.2-26.12,0-1.36,0-2.72,0-4.08-.4-4-.06-8.01-.19-12.01-.03-1.04.22-2.1-.24-3.11Z"/>
      <path class="cls-5" d="M699.31,325.98c-5.57-9.05-11-18.2-16.4-27.35-10.18-17.22-20.34-34.45-30.47-51.72-1.01-1.73-1.61-1.78-2.59,0-2.69,4.8-5.4,9.63-8.09,14.45-6.53,11.67-12.68,23.55-19.06,35.29-5.59,10.37-11.24,20.72-16.98,31-.84,1.51-.79,2.16.79,2.93,2.38,1.15,4.71,2.4,6.89,3.87,1.73,1.18,2.57.86,3.41-.94,3.63-7.83,7.52-15.53,10.9-23.43,1.22-2.88,2.74-3.75,5.55-3.1,2.16-.62,4.42.1,6.6-.43,2.59-.05,5.21-.1,7.83-.14,2.35-.65,4.78.1,7.13-.43,2.62-.05,5.21-.1,7.83-.14,2.35-.65,4.8.12,7.16-.43,1.94-.6,3.19.12,4.08,1.92,1.1,2.28,2.38,4.47,3.6,6.67,3.7,6.7,7.42,13.4,11.12,20.12.53.96.91,1.49,2.11.65,2.5-1.7,5.02-3.39,7.68-4.78,2.16-1.1,2.11-2.06.91-4.01ZM634.14,298.01c5.67-11.19,11.07-21.9,16.78-33.18,6.03,10.95,11.64,21.15,17.48,31.77-11.55.48-22.64.94-34.26,1.42Z"/>
      <path class="cls-5" d="M532.58,326.89c-11.96-19.16-22.95-38.9-34.45-58.34-4.35-7.35-8.81-14.62-13.18-21.95-.72-1.18-1.2-1.73-2.09-.1-1.7,3.12-3.6,6.12-5.31,9.24-5.11,9.46-10.16,18.97-15.29,28.43-3.15,5.83-6.36,11.62-9.58,17.43-4.23,7.71-8.36,15.49-12.75,23.1-2.57,4.47-2.5,5.21,2.21,7.56,1.32.65,2.59,1.39,3.82,2.21,1.92,1.27,2.93.62,3.82-1.32,3.6-7.85,7.42-15.58,10.92-23.46,1.1-2.47,2.52-3.31,5.02-2.71,2.35-.65,4.78.1,7.13-.43,2.62-.05,5.21-.1,7.83-.14,2.35-.65,4.8.12,7.15-.43,2.59-.05,5.19-.1,7.8-.14,2.16-.62,4.42.1,6.6-.43,2.4-.72,3.67.6,4.73,2.52,4.66,8.52,9.41,17.02,14.02,25.57.84,1.54,1.49,1.87,3,.89,2.59-1.73,5.26-3.41,8.02-4.87,1.51-.79,1.27-1.51.58-2.62ZM466.91,298.01c5.64-11.14,11.04-21.85,16.78-33.18,5.98,10.88,11.62,21.13,17.48,31.77l-34.26,1.42Z"/>
      <path class="cls-5" d="M418.49,335.19c-1.75-.26-3.5-.26-5.24,0-1.97-.62-4.03.09-6.01-.42-6.49-.4-12.88-1.39-19.03-3.58-9.32-3.32-17.46-8.23-22.69-16.98-6.62-11.07-5.33-22.07.53-32.93,4.99-9.24,12.51-16.05,21.42-21.31,10.68-6.31,22.35-9.99,34.51-12.27,1.74-.33,2.18.29,2.43,1.64.41,2.14.76,4.3,1.19,6.44.32,1.6-.18,2.34-1.91,2.6-8.47,1.27-16.69,3.49-24.42,7.23-8.77,4.25-16.55,9.76-21.45,18.48-8.24,14.65-2.07,30.87,13.95,36.77,5.81,2.14,11.75,3.76,18.04,3.52,4.21.39,8.42.39,12.62,0,1.33-.03,2.68.07,3.98-.13,3.73-.58,3.73-.63,4.27,2.98.11.75.26,1.55.1,2.27-.33,1.54,1.63,3.23.03,4.48-1.25.98-3.07.53-4.64.66-.38.03-.75.09-1.13.14-2.17.53-4.41-.21-6.57.42Z"/>
      <path class="cls-5" d="M551.83,324.91c8.59-1.58,16.81-4,23.76-9.65,6.77-5.5,4.28-12.2-2.15-16.36-5.67-3.67-12.13-5.88-17.67-9.78-4.28-3.02-8.05-6.28-8.69-12.06-.35-3.11.37-5.86,1.61-8.52,2.81-6.06,7.83-9.99,13.43-13.23,6.43-3.72,13.31-6.28,20.62-7.75,1.74-.35,2.14.02,2.48,1.58.52,2.39,2.29,4.95,1.77,7-.63,2.51-4.15,1.58-6.34,2.29-5.31,1.72-10.75,3-15.32,6.43-7.58,5.68-7.21,12.16,1.05,16.93,5.41,3.12,10.89,6.12,16.36,9.13,4.94,2.72,8.71,6.38,9.99,12.11.3,1.53.3,3.05,0,4.58-2.14,9.66-9.03,15.31-17.05,19.91-6.52,3.74-13.64,5.96-20.96,7.55-1.09.24-1.57.19-1.86-1.2-.52-2.47-1.51-4.85-2.31-7.26-.71-1.42.68-1.26,1.27-1.69Z"/>
      <path class="cls-11" d="M335.91,376.1s-.17-.49-.27-.77c-1.03-2.66-2.9-4.83-4.25-7.3-.73-1.32-.49-2.23.53-3.27,3.56-3.65,7.77-6.53,11.61-9.86,3.7-3.21,7.3-6.54,10.95-9.81,3.59-3.21,7.26-6.35,10.77-9.65,1.31-1.24,2.18-.32,2.9.35,5.05,4.75,8.78,10.45,11.66,16.72.66,1.44-.59,1.81-1.4,2.25-11.35,6.17-22.62,12.53-34.45,17.78-2.5,1.11-5.01,2.21-8.04,3.55Z"/>
    </g>
    <g>
      <polygon class="cls-11" points="1001.66 324.11 1043.89 296.24 539.59 36.11 36.11 295.56 76.43 323.15 539.68 87.46 1001.66 324.11"/>
      <polygon class="cls-3" points="133.67 306.3 144.02 324.84 539.68 122.94 935.68 325.08 945.84 306.52 539.59 99.46 133.67 306.3"/>
      <polygon class="cls-8" points="539.59 153.64 217.27 318.25 209.18 303.02 539.77 132.98 870.84 303.6 862.13 318.79 539.59 153.64"/>
    </g>
    <g>
      <rect class="cls-7" x="268.94" y="635.06" width="573.36" height="67.44"/>
      <polygon class="cls-6" points="340.61 635.06 286.44 702.5 268.94 702.5 268.94 635.06 340.61 635.06"/>
      <polygon class="cls-6" points="842.3 635.06 788.13 702.5 750.31 702.5 804.48 635.06 842.3 635.06"/>
      <polygon class="cls-6" points="842.3 659.07 842.3 702.5 807.43 702.5 842.3 659.07"/>
      <polygon class="cls-6" points="787.39 635.06 733.22 702.5 695.4 702.5 749.57 635.06 787.39 635.06"/>
      <polygon class="cls-6" points="730.67 635.06 676.51 702.5 638.67 702.5 692.86 635.06 730.67 635.06"/>
      <polygon class="cls-6" points="675.98 635.06 621.81 702.5 583.97 702.5 638.14 635.06 675.98 635.06"/>
      <polygon class="cls-6" points="619.53 635.06 565.37 702.5 527.53 702.5 581.69 635.06 619.53 635.06"/>
      <polygon class="cls-6" points="564.26 635.06 510.09 702.5 472.26 702.5 526.42 635.06 564.26 635.06"/>
      <polygon class="cls-6" points="507.21 635.06 453.05 702.5 415.21 702.5 469.37 635.06 507.21 635.06"/>
      <polygon class="cls-6" points="452.66 635.06 398.5 702.5 360.66 702.5 414.82 635.06 452.66 635.06"/>
      <polygon class="cls-6" points="396.24 635.06 342.07 702.5 304.23 702.5 358.4 635.06 396.24 635.06"/>
      <path class="cls-4" d="M850.73,636.66l52.22,20.52c1.89.74,3.13,2.56,3.13,4.59v14.99c0,2.66-1.71,5.02-4.23,5.86l-50.99,16.86c-1.91.63-3.87-.79-3.87-2.8l.02-57.47c0-1.93,1.94-3.25,3.73-2.54Z"/>
      <path class="cls-2" d="M912.61,659.77l23.97,8.76c.96.35.94,1.71-.02,2.04l-23.57,8.11c-1.53.53-3.12-.61-3.12-2.23v-14.77c0-1.41,1.41-2.39,2.74-1.91Z"/>
      <rect class="cls-10" x="143.19" y="635.06" width="123.31" height="67.44"/>
      <rect class="cls-2" x="142.71" y="635.44" width="88.16" height="67.06"/>
      <rect class="cls-7" x="245.83" y="635.06" width="9.82" height="67.45"/>
    </g>
  </g>
</svg>