<?xml version="1.0" encoding="UTF-8"?>
<svg id="Camada_1" data-name="Camada 1" xmlns="http://www.w3.org/2000/svg" viewBox="0 0 1080 1080">
  <defs>
    <style>
      .cls-1 {
        fill: #fff;
      }

      .cls-1, .cls-2 {
        stroke-width: 0px;
      }

      .cls-2 {
        fill: #00b741;
      }
    </style>
  </defs>
  <path class="cls-1" d="M540,0h0C838.03,0,1080,241.97,1080,540h0c0,298.03-241.97,540-540,540H165.34C74.08,1080,0,1005.92,0,914.66v-374.67C0,241.97,241.97,0,540,0Z"/>
  <g>
    <path class="cls-2" d="M737.71,600.8c-1.6-.77-61.46-30.25-72.1-34.08-4.34-1.56-9-3.08-13.94-3.08-8.08,0-14.87,4.03-20.16,11.94-5.98,8.89-24.08,30.05-29.68,36.37-.73.83-1.73,1.83-2.32,1.83-.54,0-9.8-3.82-12.61-5.03-64.22-27.9-112.96-94.98-119.65-106.29-.95-1.63-.99-2.36-1-2.36.23-.86,2.39-3.03,3.51-4.14,3.26-3.23,6.79-7.48,10.21-11.59,1.62-1.95,3.24-3.9,4.83-5.74,4.96-5.77,7.17-10.25,9.73-15.44l1.34-2.7c6.25-12.42.91-22.89-.81-26.28-1.42-2.83-26.69-63.84-29.38-70.25-6.46-15.47-15-22.67-26.87-22.67-1.1,0,0,0-4.62.19-5.62.24-36.24,4.27-49.78,12.8-14.36,9.05-38.65,37.9-38.65,88.64,0,45.67,28.98,88.79,41.42,105.19.31.41.88,1.25,1.7,2.46,47.65,69.59,107.05,121.16,167.27,145.22,57.97,23.16,85.43,25.83,101.03,25.83h0c6.56,0,11.81-.51,16.44-.97l2.94-.28c20.03-1.78,64.04-24.58,74.05-52.4,7.89-21.91,9.97-45.85,4.72-54.54-3.59-5.91-9.79-8.88-17.63-12.65Z"/>
    <path class="cls-2" d="M547.96,128.95c-222.39,0-403.33,179.57-403.33,400.29,0,71.39,19.11,141.27,55.3,202.43l-69.27,204.34c-1.29,3.81-.33,8.02,2.49,10.89,2.03,2.08,4.79,3.2,7.61,3.2,1.08,0,2.17-.16,3.23-.5l213.07-67.71c58.31,31.15,124.21,47.6,190.9,47.6,222.37,0,403.29-179.55,403.29-400.25s-180.91-400.29-403.29-400.29ZM547.96,846.11c-62.76,0-123.54-18.12-175.79-52.41-1.76-1.15-3.8-1.75-5.85-1.75-1.09,0-2.17.17-3.23.5l-106.74,33.93,34.46-101.66c1.11-3.29.56-6.92-1.5-9.72-39.79-54.37-60.82-118.6-60.82-185.77,0-174.74,143.31-316.91,319.47-316.91s319.43,142.17,319.43,316.91c0,174.72-143.29,316.87-319.43,316.87Z"/>
  </g>
</svg>